<svg width="22" height="25" viewBox="0 0 22 25" fill="none" xmlns="http://www.w3.org/2000/svg">
<path fill-rule="evenodd" clip-rule="evenodd" d="M1.83333 0.730469C1.61232 0.730469 1.40036 0.821066 1.24408 0.98233C1.0878 1.14359 1 1.36231 1 1.59038V20.3535C1 20.5816 1.0878 20.8003 1.24408 20.9616C1.40036 21.1229 1.61232 21.2134 1.83333 21.2134H16.8333C17.0543 21.2134 17.2663 21.1229 17.4226 20.9616C17.5789 20.8003 17.6667 20.5816 17.6667 20.3535V8.15834C17.6669 8.04288 17.6446 7.92855 17.601 7.82218C17.5575 7.71581 17.4937 7.61957 17.4133 7.53921L10.8517 0.976402C10.6965 0.820259 10.4884 0.732659 10.2717 0.732189L1.83333 0.730469ZM14.7767 7.29844L11.105 3.6232V7.29844H14.7767ZM7.66667 8.39224H4.33333V6.67242H7.66667V8.39224ZM14.3333 12.6918H4.33333V10.972H14.3333V12.6918ZM4.33333 16.9913H14.3333V15.2715H4.33333V16.9913Z" fill="#734CA5"/>
<path d="M19.3333 11.8319V23.0107H5.16667V24.7305H20.1667C20.3877 24.7305 20.5996 24.6399 20.7559 24.4786C20.9122 24.3173 21 24.0986 21 23.8706V11.8319H19.3333Z" fill="#734CA5"/>
</svg>
