<svg width="26" height="25" viewBox="0 0 26 25" fill="none" xmlns="http://www.w3.org/2000/svg">
<path d="M11.6472 0.314453C10.0124 0.314453 8.44451 0.963893 7.2885 2.1199C6.13249 3.27591 5.48305 4.8438 5.48305 6.47865C5.48305 8.11349 6.13249 9.68138 7.2885 10.8374C8.44451 11.9934 10.0124 12.6428 11.6472 12.6428C13.2821 12.6428 14.85 11.9934 16.006 10.8374C17.162 9.68138 17.8114 8.11349 17.8114 6.47865C17.8114 4.8438 17.162 3.27591 16.006 2.1199C14.85 0.963893 13.2821 0.314453 11.6472 0.314453ZM13.3284 17.9665C13.3285 17.1387 13.5217 16.3224 13.8925 15.5823C14.2633 14.8423 14.8016 14.1989 15.4646 13.7033C16.1276 13.2077 16.8971 12.8735 17.7118 12.7273C18.5266 12.5811 19.3642 12.6269 20.1581 12.8611C20.9521 13.0953 21.6805 13.5114 22.2855 14.0764C22.8905 14.6413 23.3554 15.3396 23.6433 16.1157C23.9312 16.8918 24.0341 17.7243 23.9439 18.5471C23.8538 19.37 23.573 20.1605 23.1238 20.8558L25 22.7286L23.4164 24.3145L21.5391 22.4394C20.7351 22.9584 19.8062 23.251 18.8499 23.2866C17.8937 23.3222 16.9455 23.0993 16.1052 22.6416C15.2649 22.1838 14.5636 21.508 14.0749 20.6853C13.5862 19.8626 13.3284 18.9234 13.3284 17.9665ZM18.652 14.8844C17.8346 14.8844 17.0506 15.2091 16.4726 15.7871C15.8946 16.3651 15.5699 17.149 15.5699 17.9665C15.5699 18.7839 15.8946 19.5678 16.4726 20.1458C17.0506 20.7238 17.8346 21.0486 18.652 21.0486C19.4694 21.0486 20.2534 20.7238 20.8314 20.1458C21.4094 19.5678 21.7341 18.7839 21.7341 17.9665C21.7341 17.149 21.4094 16.3651 20.8314 15.7871C20.2534 15.2091 19.4694 14.8844 18.652 14.8844ZM13.0482 13.7636C12.1366 14.9749 11.6448 16.4504 11.6472 17.9665C11.6472 19.8056 12.3567 21.48 13.5156 22.7297H1V20.4882C1 18.7047 1.70848 16.9943 2.96958 15.7332C4.23068 14.4721 5.9411 13.7636 7.72457 13.7636H13.0482Z" fill="#734CA5"/>
</svg>
