<svg width="26" height="25" viewBox="0 0 26 25" fill="none" xmlns="http://www.w3.org/2000/svg">
<path d="M16.4425 9.37873C17.65 9.37873 18.63 10.369 18.63 11.5893V15.6945H18.625V16.9577H7.375V13.1682H7.3775V11.5893C7.3775 10.369 8.35625 9.37873 9.565 9.37873H16.4425ZM25.5 11.5893C25.5 11.003 25.2695 10.4407 24.8593 10.0262C24.4491 9.61162 23.8927 9.37873 23.3125 9.37873H19.0938C19.585 9.97873 19.88 10.7493 19.88 11.5893V13.1682H19.875V16.9577H24.5625C24.8111 16.9577 25.0496 16.8579 25.2254 16.6802C25.4012 16.5025 25.5 16.2616 25.5 16.0103V11.5893ZM6.125 15.6945H6.1275V11.5893L6.13875 11.3114C6.19108 10.6012 6.46208 9.92537 6.91375 9.37873H2.6875L2.5075 9.3863C1.96037 9.43195 1.45024 9.68382 1.07835 10.0919C0.706464 10.5 0.500021 11.0345 0.5 11.5893V16.0103C0.5 16.5333 0.92 16.9577 1.4375 16.9577H6.125V15.6945ZM13 0.536621C13.9946 0.536621 14.9484 0.935868 15.6517 1.64653C16.3549 2.3572 16.75 3.32106 16.75 4.32609C16.75 5.33113 16.3549 6.29499 15.6517 7.00566C14.9484 7.71632 13.9946 8.11557 13 8.11557C12.0054 8.11557 11.0516 7.71632 10.3483 7.00566C9.64509 6.29499 9.25 5.33113 9.25 4.32609C9.25 3.32106 9.64509 2.3572 10.3483 1.64653C11.0516 0.935868 12.0054 0.536621 13 0.536621ZM21.125 1.79978C21.9538 1.79978 22.7487 2.13248 23.3347 2.7247C23.9208 3.31693 24.25 4.12015 24.25 4.95767C24.25 5.7952 23.9208 6.59842 23.3347 7.19064C22.7487 7.78286 21.9538 8.11557 21.125 8.11557C20.2962 8.11557 19.5013 7.78286 18.9153 7.19064C18.3292 6.59842 18 5.7952 18 4.95767C18 4.12015 18.3292 3.31693 18.9153 2.7247C19.5013 2.13248 20.2962 1.79978 21.125 1.79978ZM4.875 1.79978C5.7038 1.79978 6.49866 2.13248 7.08471 2.7247C7.67076 3.31693 8 4.12015 8 4.95767C8 5.7952 7.67076 6.59842 7.08471 7.19064C6.49866 7.78286 5.7038 8.11557 4.875 8.11557C4.0462 8.11557 3.25134 7.78286 2.66529 7.19064C2.07924 6.59842 1.75 5.7952 1.75 4.95767C1.75 4.12015 2.07924 3.31693 2.66529 2.7247C3.25134 2.13248 4.0462 1.79978 4.875 1.79978ZM0.5 19.1682C0.5 18.9169 0.598772 18.676 0.774587 18.4983C0.950403 18.3206 1.18886 18.2208 1.4375 18.2208H24.5625C24.8111 18.2208 25.0496 18.3206 25.2254 18.4983C25.4012 18.676 25.5 18.9169 25.5 19.1682V19.7998C25.5 21.0561 25.0061 22.2609 24.1271 23.1492C23.248 24.0376 22.0557 24.5366 20.8125 24.5366H5.1875C3.9443 24.5366 2.75201 24.0376 1.87294 23.1492C0.99386 22.2609 0.5 21.0561 0.5 19.7998V19.1682Z" fill="#734CA5"/>
</svg>
