<svg width="24" height="25" viewBox="0 0 24 25" fill="none" xmlns="http://www.w3.org/2000/svg">
<path d="M18.8432 17.7243L17.27 22.4619C17.0318 23.1791 16.5747 23.8028 15.9634 24.2448C15.352 24.6868 14.6175 24.9245 13.8639 24.9243H10.136C9.38246 24.9245 8.64794 24.6868 8.0366 24.2448C7.42527 23.8028 6.96813 23.1791 6.73 22.4619L5.15678 17.7243H18.8432ZM21.2359 10.5243L19.6412 15.3243H4.35881L2.76406 10.5243H21.2359ZM21.1091 0.924316C21.488 0.924605 21.8615 1.01516 22.1987 1.18853C22.5359 1.3619 22.8272 1.61312 23.0487 1.92152C23.2702 2.22991 23.4155 2.58666 23.4726 2.9624C23.5298 3.33813 23.4971 3.72211 23.3774 4.08272L22.0339 8.12432H1.96608L0.622565 4.08272C0.508473 3.73906 0.473408 3.37396 0.52 3.01479C0.566591 2.65561 0.69363 2.31166 0.891594 2.00873C1.08956 1.70581 1.35331 1.45175 1.66309 1.26561C1.97286 1.07947 2.32063 0.966072 2.68031 0.933916L2.89207 0.924316H21.1091Z" fill="#734CA5"/>
</svg>
