<svg width="48" height="108" viewBox="0 0 48 108" fill="none" xmlns="http://www.w3.org/2000/svg">
<path fill-rule="evenodd" clip-rule="evenodd" d="M24.7903 102.224C29.2587 101.097 33.6792 99.7823 38.0398 98.2835L38.009 98.3373C40.2474 97.5505 41.2005 101.119 38.9737 101.884C32.8934 103.961 26.698 105.679 20.4188 107.031C19.8682 107.173 19.2841 107.056 18.8318 106.713C18.3798 106.369 18.1099 105.837 18.0977 105.269C18.4277 97.6849 19.4714 94.7082 18.4644 87.187C18.1341 84.85 21.8287 84.8231 22.1436 87.1374C22.9079 92.8785 21.9022 94.0427 21.8925 99.8324C34.4624 90.8847 42.9804 76.5798 43.6658 60.9542C44.0163 53.1751 41.0379 43.4462 35.3969 37.4222C34.0901 43.9883 30.123 49.7288 24.4205 53.2719C19.1591 56.4768 10.5748 58.3321 5.94003 53.0454C1.86068 48.454 3.48067 41.2418 6.62617 36.6621C8.5637 33.8348 11.2238 31.5778 14.3316 30.126C17.4393 28.6743 20.8815 28.0793 24.3001 28.4041C27.1959 28.6807 29.8168 29.447 32.164 30.6019C31.1343 15.3445 16.3019 5.8942 2.08069 3.83272C-0.249951 3.49561 0.681316 -0.0277464 2.97369 0.301043C19.5606 2.69424 36.4616 15.1613 35.9027 32.9305C43.9892 39.1424 47.7705 50.5777 47.3193 60.9121C46.6167 77.4309 37.8953 92.5 24.7903 102.224ZM32.1194 34.5785C27.9493 31.7114 22.7551 30.7433 16.7071 33.1189C12.0963 34.8939 8.63605 38.7901 7.42055 43.5747C5.95166 50.4244 12.5249 53.9103 18.56 52.0273C26.1026 49.6717 31.3876 42.3054 32.1194 34.5785Z" fill="#C2B4EC"/>
</svg>
